<svg width="99" height="27" viewBox="0 0 99 27" fill="none" xmlns="http://www.w3.org/2000/svg">
<path d="M36.5732 15.3564H34.9395V19H32.8887V9.04688H36.5869C37.7627 9.04688 38.6696 9.30892 39.3076 9.83301C39.9456 10.3571 40.2646 11.0977 40.2646 12.0547C40.2646 12.7337 40.1165 13.3011 39.8203 13.7568C39.5286 14.208 39.0843 14.568 38.4873 14.8369L40.6406 18.9043V19H38.4395L36.5732 15.3564ZM34.9395 13.6953H36.5938C37.1087 13.6953 37.5075 13.5654 37.79 13.3057C38.0726 13.0413 38.2139 12.679 38.2139 12.2188C38.2139 11.7493 38.0794 11.3802 37.8105 11.1113C37.5462 10.8424 37.1383 10.708 36.5869 10.708H34.9395V13.6953ZM45.1045 19.1367C44.0199 19.1367 43.1357 18.804 42.4521 18.1387C41.7731 17.4733 41.4336 16.5869 41.4336 15.4795V15.2881C41.4336 14.5452 41.5771 13.8822 41.8643 13.2988C42.1514 12.7109 42.557 12.2598 43.0811 11.9453C43.6097 11.6263 44.2113 11.4668 44.8857 11.4668C45.8975 11.4668 46.6927 11.7858 47.2715 12.4238C47.8548 13.0618 48.1465 13.9665 48.1465 15.1377V15.9443H43.4365C43.5003 16.4274 43.6917 16.8148 44.0107 17.1064C44.3343 17.3981 44.7422 17.5439 45.2344 17.5439C45.9954 17.5439 46.5902 17.2682 47.0186 16.7168L47.9893 17.8037C47.693 18.223 47.292 18.5511 46.7861 18.7881C46.2803 19.0205 45.7197 19.1367 45.1045 19.1367ZM44.8789 13.0664C44.487 13.0664 44.168 13.1986 43.9219 13.4629C43.6803 13.7272 43.5254 14.1055 43.457 14.5977H46.2051V14.4404C46.196 14.0029 46.0775 13.6657 45.8496 13.4287C45.6217 13.1872 45.2982 13.0664 44.8789 13.0664ZM51.9473 16.5869L53.3213 11.6035H55.3857L52.8906 19H51.0039L48.5088 11.6035H50.5732L51.9473 16.5869ZM58.3457 19H56.3633V11.6035H58.3457V19ZM56.2471 9.68945C56.2471 9.39323 56.3451 9.14941 56.541 8.95801C56.7415 8.7666 57.0127 8.6709 57.3545 8.6709C57.6917 8.6709 57.9606 8.7666 58.1611 8.95801C58.3617 9.14941 58.4619 9.39323 58.4619 9.68945C58.4619 9.99023 58.3594 10.2363 58.1543 10.4277C57.9538 10.6191 57.6872 10.7148 57.3545 10.7148C57.0218 10.7148 56.7529 10.6191 56.5479 10.4277C56.3473 10.2363 56.2471 9.99023 56.2471 9.68945ZM63.3838 19.1367C62.2992 19.1367 61.415 18.804 60.7314 18.1387C60.0524 17.4733 59.7129 16.5869 59.7129 15.4795V15.2881C59.7129 14.5452 59.8564 13.8822 60.1436 13.2988C60.4307 12.7109 60.8363 12.2598 61.3604 11.9453C61.889 11.6263 62.4906 11.4668 63.165 11.4668C64.1768 11.4668 64.972 11.7858 65.5508 12.4238C66.1341 13.0618 66.4258 13.9665 66.4258 15.1377V15.9443H61.7158C61.7796 16.4274 61.971 16.8148 62.29 17.1064C62.6136 17.3981 63.0215 17.5439 63.5137 17.5439C64.2747 17.5439 64.8695 17.2682 65.2979 16.7168L66.2686 17.8037C65.9723 18.223 65.5713 18.5511 65.0654 18.7881C64.5596 19.0205 63.999 19.1367 63.3838 19.1367ZM63.1582 13.0664C62.7663 13.0664 62.4473 13.1986 62.2012 13.4629C61.9596 13.7272 61.8047 14.1055 61.7363 14.5977H64.4844V14.4404C64.4753 14.0029 64.3568 13.6657 64.1289 13.4287C63.901 13.1872 63.5775 13.0664 63.1582 13.0664ZM73.9863 16.3135L74.957 11.6035H76.8643L74.9775 19H73.3232L71.9219 14.3447L70.5205 19H68.873L66.9863 11.6035H68.8936L69.8574 16.3066L71.2109 11.6035H72.6396L73.9863 16.3135ZM78.2451 19V9.04688H81.499C82.5791 9.04688 83.3903 9.27018 83.9326 9.7168C84.4795 10.1634 84.7529 10.8242 84.7529 11.6992C84.7529 12.1641 84.6208 12.5765 84.3564 12.9365C84.0921 13.292 83.7321 13.5677 83.2764 13.7637C83.8141 13.9141 84.238 14.2012 84.5479 14.625C84.8623 15.0443 85.0195 15.5456 85.0195 16.1289C85.0195 17.0221 84.7301 17.724 84.1514 18.2344C83.5726 18.7448 82.7546 19 81.6973 19H78.2451ZM79.5576 14.3447V17.9268H81.7246C82.3353 17.9268 82.8161 17.7695 83.167 17.4551C83.5225 17.1361 83.7002 16.6986 83.7002 16.1426C83.7002 14.944 83.0485 14.3447 81.7451 14.3447H79.5576ZM79.5576 13.292H81.54C82.1143 13.292 82.5723 13.1484 82.9141 12.8613C83.2604 12.5742 83.4336 12.1846 83.4336 11.6924C83.4336 11.1455 83.2741 10.749 82.9551 10.5029C82.6361 10.2523 82.1507 10.127 81.499 10.127H79.5576V13.292ZM86.4346 15.2334C86.4346 14.5088 86.5758 13.8571 86.8584 13.2783C87.1455 12.6995 87.542 12.2529 88.0479 11.9385C88.5583 11.624 89.1393 11.4668 89.791 11.4668C90.7982 11.4668 91.6117 11.8154 92.2314 12.5127C92.8558 13.21 93.168 14.1374 93.168 15.2949V15.3838C93.168 16.1038 93.029 16.751 92.751 17.3252C92.4775 17.8949 92.0833 18.3392 91.5684 18.6582C91.0579 18.9772 90.4701 19.1367 89.8047 19.1367C88.8021 19.1367 87.9886 18.7881 87.3643 18.0908C86.7445 17.3936 86.4346 16.4707 86.4346 15.3223V15.2334ZM87.7061 15.3838C87.7061 16.2041 87.8952 16.8626 88.2734 17.3594C88.6562 17.8561 89.1667 18.1045 89.8047 18.1045C90.4473 18.1045 90.9577 17.8538 91.3359 17.3525C91.7142 16.8467 91.9033 16.1403 91.9033 15.2334C91.9033 14.4222 91.7096 13.766 91.3223 13.2646C90.9395 12.7588 90.429 12.5059 89.791 12.5059C89.1667 12.5059 88.6631 12.7542 88.2803 13.251C87.8975 13.7477 87.7061 14.4587 87.7061 15.3838ZM96.4697 9.8125V11.6035H97.8506V12.5811H96.4697V17.168C96.4697 17.4642 96.5312 17.6875 96.6543 17.8379C96.7773 17.9837 96.987 18.0566 97.2832 18.0566C97.429 18.0566 97.6296 18.0293 97.8848 17.9746V19C97.5521 19.0911 97.2285 19.1367 96.9141 19.1367C96.349 19.1367 95.9229 18.9658 95.6357 18.624C95.3486 18.2822 95.2051 17.7969 95.2051 17.168V12.5811H93.8584V11.6035H95.2051V9.8125H96.4697Z" fill="black"/>
<g clip-path="url(#clip0)">
<path d="M13.0999 6.60569V5.32299C12.9428 5.26453 12.7905 5.19419 12.6442 5.1126C12.0714 4.77506 11.64 4.24426 11.4288 3.61712C11.2175 2.98998 11.2405 2.30833 11.4935 1.6966C11.6341 1.363 11.8383 1.05956 12.095 0.803011C12.351 0.54889 12.6544 0.346789 12.9883 0.208038C13.3247 0.0691128 13.6857 -0.00164898 14.0501 -8.92059e-05C14.5976 -0.000165819 15.1327 0.161013 15.5878 0.463044C16.0429 0.765075 16.3975 1.19438 16.6068 1.6966C16.8862 2.36812 16.8862 3.12219 16.6068 3.79371C16.4675 4.12737 16.2631 4.43031 16.0052 4.68504L15.9915 4.69861C15.8292 4.85706 15.6488 4.99601 15.4538 5.1126C15.3092 5.19737 15.1565 5.26784 14.998 5.32299V6.60569H21.4876C22.419 6.60868 23.3113 6.97747 23.9696 7.63152C24.628 8.28556 24.9989 9.1717 25.0013 10.0964V10.6144H26.2044C26.6817 10.6162 27.1389 10.8054 27.4761 11.1406C27.8134 11.4759 28.0034 11.93 28.0046 12.4038V16.5596C28.0034 17.0334 27.8134 17.4876 27.4761 17.8228C27.1389 18.1581 26.6817 18.3473 26.2044 18.3491H25.0081V18.8173C25.0051 19.743 24.6331 20.6298 23.9734 21.2839C23.3137 21.938 22.42 22.3062 21.4876 22.308H12.585L7.24837 26.8574C7.18954 26.9076 7.12129 26.9457 7.04756 26.9695C6.97383 26.9934 6.89607 27.0026 6.81876 26.9965C6.74146 26.9904 6.66613 26.9691 6.59712 26.934C6.52811 26.8989 6.46678 26.8505 6.41667 26.7918C6.31644 26.6758 6.26504 26.5259 6.27311 26.3733L6.55794 22.3012H6.51009C5.57994 22.2988 4.68855 21.9311 4.03062 21.2783C3.37269 20.6255 3.0017 19.7408 2.9987 18.8173V18.3491H1.80241C1.32475 18.3479 0.866999 18.1589 0.529242 17.8236C0.191486 17.4883 0.00120318 17.0338 0 16.5596L0 12.4038C0.00120029 11.93 0.191169 11.4759 0.528434 11.1406C0.865699 10.8054 1.32287 10.6162 1.80013 10.6144H2.9987V10.0941C3.0005 9.16985 3.37096 8.28395 4.02902 7.6302C4.68707 6.97645 5.57916 6.60808 6.51009 6.60569H13.0999ZM21.4853 7.78206H6.51009C5.89281 7.78445 5.30152 8.02912 4.86525 8.46268C4.42897 8.89624 4.18311 9.48351 4.18131 10.0964V18.8173C4.18311 19.4302 4.42897 20.0175 4.86525 20.451C5.30152 20.8846 5.89281 21.1292 6.51009 21.1316H7.23242C7.38863 21.1432 7.53393 21.2155 7.63675 21.3329C7.73957 21.4502 7.79161 21.6031 7.78157 21.7583L7.55371 25.0566L11.9515 21.299C12.0062 21.2447 12.0712 21.2017 12.1428 21.1726C12.2144 21.1435 12.2911 21.1288 12.3685 21.1294H21.4831C22.1004 21.127 22.6916 20.8823 23.1279 20.4488C23.5642 20.0152 23.81 19.4279 23.8118 18.8151V10.0941C23.8106 9.48166 23.5652 8.89462 23.1292 8.46136C22.6933 8.02809 22.1022 7.78386 21.4853 7.78206Z" fill="black"/>
</g>
<path d="M14 9.8L15.3905 12.7627L18.5 13.2378L16.2499 15.544L16.7812 18.8L14 17.2629L11.2188 18.8L11.7501 15.544L9.5 13.2378L12.6095 12.7627L14 9.8Z" fill="#1D1D1B" stroke="#1D1D1B" stroke-miterlimit="10" stroke-linecap="round" stroke-linejoin="round"/>
<defs>
<clipPath id="clip0">
<rect width="28" height="27" fill="white"/>
</clipPath>
</defs>
</svg>
